# xmcd CD database file
#
# Track frame offsets:
#	150
#	31362
#	49560
#	71370
#	92895
#	118742
#	132960
#	156805
#	173222
#	193337
#	216465
#
# Disc length: 3104 seconds
#
# Revision: 0
# Processed by: cddbd v1.5.2PL0 Copyright (c) Steve Scherf et al.
# Submitted via: CDex 1.75
#
DISCID=a00c1e0b
DTITLE=Beat Kaestli - Collage
DYEAR=2014
DGENRE=Jazz
TTITLE0=En Bord de Mer/Lugar Comum
TTITLE1=La Haut sur la Montagne
TTITLE2=La Mer
TTITLE3=Besame Mucho/Embrasse-Moi Beaucoup
TTITLE4=Cantique Suisse/Swiss Psalm
TTITLE5=Comme en Plein Reve
TTITLE6=Autour de Minuit (Round Midnight)
TTITLE7=Frere Jacques
TTITLE8=I wish you love/Que reste-t-il de nos amours
TTITLE9=The Choice You Make
TTITLE10=La vie en Rose
EXTD=YEAR: 2014
EXTT0=
EXTT1=
EXTT2=
EXTT3=
EXTT4=
EXTT5=
EXTT6=
EXTT7=
EXTT8=
EXTT9=
EXTT10=
PLAYORDER=
